<?xml version="1.0" encoding="utf-8"?>
<!-- Generator: Adobe Illustrator 22.0.1, SVG Export Plug-In . SVG Version: 6.00 Build 0)  -->
<svg version="1.1" id="레이어_1" xmlns="http://www.w3.org/2000/svg" xmlns:xlink="http://www.w3.org/1999/xlink" x="0px"
	 y="0px" viewBox="0 0 344.5 58.1" style="enable-background:new 0 0 344.5 58.1;" xml:space="preserve">
<style type="text/css">
	.st0{fill:#FFCD00;}
	.st1{fill:#4C4C4C;}
</style>
<g>
	<g id="XMLID_206_">
		<path id="XMLID_37_" class="st0" d="M7.1,56.3H0.9V4.2l6.1-1.3V56.3z M23.5,18.5l4.8,3.5l-11.8,15l13.7,16.6l-4.7,3.7l-16.2-20
			L23.5,18.5z"/>
		<path id="XMLID_362_" class="st0" d="M35.6,46.4c0-3.7,1.2-6.6,3.7-8.5c2.5-2,6.1-2.9,10.8-2.9h7.1v-2.4c0-5.7-2.5-8.6-7.5-8.6
			c-1.6,0-3.3,0.2-5,0.7c-1.8,0.4-3.4,1-4.8,1.7L38.1,22c1.8-1,3.8-1.8,5.9-2.4c2.1-0.6,4.2-0.8,6.2-0.8c8.6,0,13,4.7,13,14v23.6
			h-4.5l-0.7-4c-1.8,1.5-3.8,2.6-5.8,3.4c-2.1,0.8-4,1.2-5.9,1.2c-3.2,0-5.8-0.9-7.6-2.8C36.6,52.2,35.6,49.7,35.6,46.4 M47.2,51.9
			c0.8,0,1.7-0.1,2.6-0.3c0.9-0.2,1.8-0.5,2.7-0.9c0.9-0.4,1.8-0.8,2.6-1.3c0.8-0.5,1.5-1.1,2.1-1.7v-8.6h-6.4
			c-3.2,0-5.6,0.6-7.1,1.7c-1.5,1.1-2.2,2.9-2.2,5.3C41.5,50,43.4,51.9,47.2,51.9"/>
		<path id="XMLID_36_" class="st0" d="M80.2,56.3H74V4.2l6.1-1.3V56.3z M96.6,18.5l4.8,3.5l-11.8,15l13.7,16.6l-4.7,3.7l-16.2-20
			L96.6,18.5z"/>
		<path id="XMLID_210_" class="st0" d="M108.7,46.4c0-3.7,1.2-6.6,3.7-8.5c2.5-2,6.1-2.9,10.8-2.9h7.1v-2.4c0-5.7-2.5-8.6-7.5-8.6
			c-1.6,0-3.3,0.2-5,0.7c-1.8,0.4-3.4,1-4.8,1.7l-1.8-4.4c1.8-1,3.8-1.8,5.9-2.4c2.1-0.6,4.2-0.8,6.2-0.8c8.6,0,13,4.7,13,14v23.6
			h-4.5l-0.7-4c-1.8,1.5-3.8,2.6-5.8,3.4c-2.1,0.8-4,1.2-5.9,1.2c-3.3,0-5.8-0.9-7.7-2.8C109.7,52.2,108.7,49.7,108.7,46.4
			 M120.3,51.9c0.8,0,1.7-0.1,2.6-0.3c0.9-0.2,1.8-0.5,2.7-0.9c0.9-0.4,1.8-0.8,2.6-1.3c0.8-0.5,1.5-1.1,2.1-1.7v-8.6h-6.4
			c-3.2,0-5.6,0.6-7.1,1.7c-1.5,1.1-2.2,2.9-2.2,5.3C114.6,50,116.5,51.9,120.3,51.9"/>
		<path id="XMLID_207_" class="st0" d="M160.9,18.8c5.1,0,9.1,1.7,12,5c2.9,3.3,4.3,8.1,4.3,14.3c0,6.1-1.4,10.8-4.3,14.1
			c-2.9,3.3-6.9,4.9-12,4.9c-5.1,0-9.1-1.6-12-4.9c-2.9-3.3-4.3-8-4.3-14.1c0-6.2,1.5-11,4.4-14.3C151.9,20.5,155.9,18.8,160.9,18.8
			 M160.9,23.8c-3.2,0-5.7,1.2-7.4,3.6c-1.7,2.4-2.6,6-2.6,10.7c0,4.6,0.9,8.1,2.6,10.5c1.7,2.4,4.2,3.5,7.4,3.5
			c3.2,0,5.7-1.2,7.5-3.5c1.7-2.4,2.6-5.9,2.6-10.5c0-4.7-0.9-8.2-2.6-10.7C166.7,25,164.2,23.8,160.9,23.8"/>
	</g>
	<g>
		<path class="st1" d="M188.6,55V4.1l9.3-1.7v18.2c2.2-1.4,5.2-2.4,8.4-2.4c9.9,0,14.5,6.8,14.5,18.6c0,12.8-7,20.4-18.6,20.4
			C197,57.2,191.2,56.2,188.6,55z M198,26.7V50c1.5,0.2,2.4,0.2,3.3,0.2c5.9,0,10-3.7,10-13.1c0-7.1-1.7-11.2-8.4-11.2
			C200.9,25.8,199.1,26.3,198,26.7z"/>
		<path class="st1" d="M237,28.4v27.8h-9.3V19.4h6.7l1.5,4c3.1-3.3,7.5-5.2,11.5-5.2c1.2,0,2.2,0.1,3.1,0.3l-1,9.1
			c-1.5-0.3-3-0.6-5.4-0.6C241.6,27.1,239.1,27.6,237,28.4z"/>
		<path class="st1" d="M268.7,33.8h5.9v-1.3c0-4-1.3-6.3-6.8-6.3c-3.4,0-6.6,0.7-9.9,2.4l-2.6-6.4c3.6-2.4,8.8-3.9,13.6-3.9
			c9.4,0,14.4,4.6,14.4,14.2v23.7h-6.6l-1-3.1c-3.8,2.9-7.8,4.1-11.1,4.1c-7.2,0-11.2-4.3-11.2-11.6
			C253.5,37.8,258.8,33.8,268.7,33.8z M274.6,47v-7.2h-5c-5,0-7.7,2-7.7,5.7c0,2.7,1.5,4.4,4.6,4.4C269.7,49.9,272.9,48.4,274.6,47z
			"/>
		<path class="st1" d="M290.5,7.4l6.8-6.9l6.8,6.9l-6.8,6.8L290.5,7.4z M302,19.4v36.8h-9.3V19.4H302z"/>
		<path class="st1" d="M311.6,19.4h6.6l1.4,3.7c3.3-2.9,7.8-4.8,11.7-4.8c8.2,0,12.3,5.1,12.3,14.3v23.6h-9.3V32.3
			c0-4.1-1.5-5.9-6.5-5.9c-2,0-4.7,0.6-6.9,1.4v28.3h-9.3V19.4z"/>
	</g>
</g>
</svg>
